<svg version="1.2" id="Layer_1" xmlns="http://www.w3.org/2000/svg" xmlns:xlink="http://www.w3.org/1999/xlink" x="0px" y="0px" viewBox="0 0 22.8 12" 
style="enable-background:new 0 0 455 455;" xml:space="preserve">
  <g>
	<g>
		<path d="M21.6,4.6l-1.8-0.8l-1.6-2.6C17.7,0.4,16.9,0,16,0H9.1c-0.8,0-1.6,0.4-2,1L5,3.7l-3.5,1C0.6,4.9,0,5.7,0,6.7    V8c0,1.1,0.9,2.1,2,2.1h0.3c0.4,1.4,1.8,2.2,3.2,1.9c0.9-0.2,1.6-0.9,1.9-1.9h7.9c0.4,1.4,1.8,2.2,3.2,1.9    c0.9-0.2,1.6-0.9,1.9-1.9h0.6c1.1,0,2-0.9,2-2.1V6.5C22.8,5.7,22.4,4.9,21.6,4.6z M4.8,11.1c-0.9,0-1.7-0.7-1.7-1.7    c0-0.9,0.7-1.7,1.7-1.7s1.7,0.7,1.7,1.7C6.5,10.3,5.8,11.1,4.8,11.1z M17.7,11.1c-0.9,0-1.7-0.7-1.7-1.7c0-0.9,0.7-1.7,1.7-1.7    s1.7,0.7,1.7,1.7C19.4,10.3,18.6,11.1,17.7,11.1z M20.8,9.1h-0.5c-0.2-1.4-1.4-2.5-2.9-2.3c-1.2,0.1-2.2,1.1-2.3,2.3H7.4    C7.3,7.7,6,6.7,4.6,6.8C3.3,7,2.4,7.9,2.3,9.1H2C1.4,9.1,0.9,8.6,0.9,8V6.7c0-0.5,0.3-0.9,0.8-1.1l3.6-1c0.1,0,0.2-0.1,0.2-0.2    l2.2-2.9c0.3-0.4,0.8-0.6,1.3-0.6H16c0.6,0,1.1,0.3,1.4,0.8l1.7,2.7c0,0.1,0.1,0.1,0.2,0.2l2,0.9c0.4,0.2,0.6,0.6,0.6,1V8h0    C21.9,8.6,21.4,9.1,20.8,9.1z" class="st0_1563961154363" vector-effect="non-scaling-stroke"></path>
	</g>
</g></svg>



