<svg version="1.2" id="Layer_1" xmlns="http://www.w3.org/2000/svg" xmlns:xlink="http://www.w3.org/1999/xlink" x="0px" y="0px" viewBox="0 0 337.6 337.6" 
style="enable-background:new 0 0 455 455;" xml:space="preserve">
<style type="text/css">
	.st0_1562656410687{fill:#333333;}
</style><g>
	<g>
		<g>
			<path d="M337.6,67.7V39.4c0-17.5-14.2-31.7-31.7-31.7h-54.6c-4.9-3-10.7-4.8-16.9-4.8H32.5C14.6,2.9,0,17.4,0,35.4     v266.8c0,17.9,14.6,32.5,32.5,32.5h201.8c6.2,0,12-1.7,16.9-4.8h54.6c17.5,0,31.7-14.2,31.7-31.7v-28.3c0-9.7-4.4-18.4-11.3-24.2     c6.9-5.8,11.3-14.5,11.3-24.2V193c0-9.7-4.4-18.4-11.3-24.2c6.9-5.8,11.3-14.5,11.3-24.2v-28.3c0-9.7-4.4-18.4-11.3-24.2     C333.2,86.1,337.6,77.4,337.6,67.7z M251.8,302.2c0,9.6-7.9,17.5-17.5,17.5H32.5c-9.6,0-17.5-7.9-17.5-17.5V35.4     c0-9.6,7.9-17.5,17.5-17.5h201.8c9.6,0,17.5,7.9,17.5,17.5V302.2z M322.6,298.2c0,9.2-7.5,16.7-16.7,16.7h-41.6     c1.7-3.9,2.6-8.2,2.6-12.7v-49.1h39c9.2,0,16.7,7.5,16.7,16.7V298.2z M322.6,221.4c0,9.2-7.5,16.7-16.7,16.7h-39v-61.8h39     c9.2,0,16.7,7.5,16.7,16.7V221.4z M322.6,144.5c0,9.2-7.5,16.7-16.7,16.7h-39V99.5h39c9.2,0,16.7,7.5,16.7,16.7V144.5z      M322.6,67.7c0,9.2-7.5,16.7-16.7,16.7h-39V35.4c0-4.5-0.9-8.8-2.6-12.7h41.6c9.2,0,16.7,7.5,16.7,16.7L322.6,67.7L322.6,67.7z" class="st0_1562656410687" vector-effect="non-scaling-stroke"></path>
			<rect height="15" width="186" class="st0_1562656410687" y="230" x="40.4" vector-effect="non-scaling-stroke"></rect>
			<path d="M66.9,206.2h133c2.3,0,4.4-1,5.8-2.8s2-4.1,1.5-6.3c-3.6-16.9-13.1-32.2-26.5-43     c8.8-10.8,13.7-24.4,13.7-38.5c0-33.7-27.4-61.1-61.1-61.1s-61.1,27.4-61.1,61.1c0,14.1,4.9,27.7,13.7,38.5     c-13.4,10.8-22.9,26.1-26.5,43c-0.5,2.2,0.1,4.5,1.5,6.3C62.5,205.2,64.6,206.2,66.9,206.2z M101.3,161.6c2-1.2,3.3-3.4,3.5-5.7     c0.2-2.3-0.7-4.6-2.4-6.2c-9.6-8.7-15.1-21.1-15.1-34.1c0-25.4,20.7-46.1,46.1-46.1s46.1,20.7,46.1,46.1     c0,12.9-5.5,25.4-15.1,34.1c-1.7,1.6-2.6,3.9-2.4,6.2s1.5,4.4,3.5,5.7c11.2,7,19.7,17.5,24.4,29.6h-113     C81.6,179.1,90.2,168.6,101.3,161.6z" class="st0_1562656410687" vector-effect="non-scaling-stroke"></path>
			<rect height="15" width="139.2" class="st0_1562656410687" y="259.7" x="63.8" vector-effect="non-scaling-stroke"></rect>
		</g>
	</g>
</g></svg>