<?xml version="1.0" encoding="utf-8"?>
<!-- Generator: Adobe Illustrator 19.2.1, SVG Export Plug-In . SVG Version: 6.00 Build 0)  -->
<svg version="1.1" id="Capa_1" xmlns="http://www.w3.org/2000/svg" xmlns:xlink="http://www.w3.org/1999/xlink" x="0px" y="0px"
	 viewBox="0 0 80.1 67.4" style="enable-background:new 0 0 80.1 67.4;" xml:space="preserve">
<style type="text/css">
	.st0{fill:#FFFFFF;}
</style>
<g>
	<path class="st0" d="M48.4,11.6c3.7,2.3,6.3,6.3,6.8,10.8c1.5,0.7,3.2,1.1,5,1.1c6.5,0,11.8-5.3,11.8-11.8C71.8,5.3,66.6,0,60.1,0
		C53.7,0,48.5,5.2,48.4,11.6z M40.7,35.6c6.5,0,11.8-5.3,11.8-11.8S47.2,12,40.7,12s-11.8,5.3-11.8,11.8S34.2,35.6,40.7,35.6z
		 M45.6,36.4h-10c-8.3,0-15,6.8-15,15v12.2v0.2l0.8,0.3c7.9,2.5,14.8,3.3,20.5,3.3c11.1,0,17.5-3.2,17.9-3.4l0.8-0.4h0.1V51.5
		C60.7,43.2,53.9,36.4,45.6,36.4z M65.1,24.3h-9.9c-0.1,4-1.8,7.5-4.5,10.1c7.4,2.2,12.8,9,12.8,17.1v3.8c9.8-0.4,15.4-3.1,15.8-3.3
		l0.8-0.4h0.1V39.4C80.1,31.1,73.4,24.3,65.1,24.3z M20,23.5c2.3,0,4.4-0.7,6.2-1.8c0.6-3.8,2.6-7,5.5-9.3c0-0.2,0-0.4,0-0.7
		C31.8,5.3,26.5,0,20,0S8.3,5.3,8.3,11.8C8.3,18.2,13.5,23.5,20,23.5z M30.6,34.4c-2.7-2.6-4.3-6.1-4.5-10c-0.4,0-0.7-0.1-1.1-0.1
		H15c-8.3,0-15,6.7-15,15v12.2v0.2L0.9,52c6.4,2,12,2.9,16.9,3.2v-3.7C17.8,43.4,23.2,36.6,30.6,34.4z"/>
</g>
</svg>
