<?xml version="1.0" encoding="utf-8"?>
<!-- Generator: Adobe Illustrator 19.2.1, SVG Export Plug-In . SVG Version: 6.00 Build 0)  -->
<svg version="1.1" id="Capa_1" xmlns="http://www.w3.org/2000/svg" xmlns:xlink="http://www.w3.org/1999/xlink" x="0px" y="0px"
	 viewBox="0 0 511.6 402" style="enable-background:new 0 0 511.6 402;" xml:space="preserve">
<style type="text/css">
	.st0{fill:#FFFFFF;}
</style>
<g>
	<path class="st0" d="M491.4,156.5c-13.5-31.6-31.7-58.8-54.5-81.7c-22.8-22.8-50.1-41-81.7-54.5S290.5,0,255.8,0
		c-34.6,0-67.8,6.8-99.4,20.3C124.9,33.8,97.6,52,74.8,74.8s-41,50.1-54.5,81.7S0,221.2,0,255.8c0,49.9,13.4,95.8,40.3,137.9
		c3.6,5.5,8.8,8.3,15.4,8.3H456c6.7,0,11.8-2.8,15.4-8.3c26.8-42.3,40.3-88.2,40.3-137.9C511.6,221.2,504.9,188.1,491.4,156.5z
		 M230,47.3c7.1-7.1,15.8-10.7,25.8-10.7c10.1,0,18.7,3.6,25.8,10.7s10.7,15.7,10.7,25.8s-3.6,18.7-10.7,25.8s-15.7,10.7-25.8,10.7
		c-10.1,0-18.7-3.6-25.8-10.7s-10.7-15.7-10.7-25.8C219.3,63,222.8,54.4,230,47.3z M98.9,281.7c-7.1,7.1-15.8,10.7-25.8,10.7
		c-10.1,0-18.7-3.6-25.8-10.7S36.6,266,36.6,255.9c0-10.1,3.6-18.7,10.7-25.8s15.8-10.7,25.8-10.7c10.1,0,18.7,3.6,25.8,10.7
		c7.1,7.1,10.7,15.7,10.7,25.8C109.6,265.9,106.1,274.5,98.9,281.7z M153.7,153.7c-7.1,7.1-15.8,10.7-25.8,10.7s-18.7-3.6-25.8-10.7
		c-7.1-7.1-10.7-15.7-10.7-25.8s3.6-18.7,10.7-25.8c7.1-7.1,15.8-10.7,25.8-10.7c10.1,0,18.7,3.6,25.8,10.7s10.7,15.7,10.7,25.8
		C164.5,138,160.9,146.6,153.7,153.7z M315.5,156.2l-28.8,109.1c9.5,6.5,16.4,15.1,20.6,26c4.2,10.8,4.8,22,1.7,33.4
		c-3.8,14.7-12.3,25.8-25.4,33.4s-27,9.5-41.7,5.7s-25.8-12.3-33.4-25.4s-9.5-27-5.7-41.7c3-11.4,9-20.8,18-28.1
		c8.9-7.3,19.1-11.5,30.5-12.4L280.1,147c1.3-4.9,4.2-8.7,8.6-11.3s8.9-3.2,13.7-1.9c4.8,1.3,8.4,4.1,11,8.4
		C315.9,146.6,316.6,151.2,315.5,156.2z M357.9,153.7c-7.1-7.1-10.7-15.7-10.7-25.8s3.6-18.7,10.7-25.8s15.7-10.7,25.8-10.7
		c10.1,0,18.7,3.6,25.8,10.7s10.7,15.7,10.7,25.8s-3.6,18.7-10.7,25.8s-15.7,10.7-25.8,10.7C373.6,164.5,365,160.9,357.9,153.7z
		 M464.4,281.7c-7.1,7.1-15.7,10.7-25.8,10.7c-10.1,0-18.7-3.6-25.8-10.7c-7.1-7.1-10.7-15.7-10.7-25.8c0-10.1,3.6-18.7,10.7-25.8
		s15.7-10.7,25.8-10.7c10.1,0,18.7,3.6,25.8,10.7s10.7,15.7,10.7,25.8C475.1,265.9,471.5,274.5,464.4,281.7z"/>
</g>
</svg>
