<svg version="1.2" preserveAspectRatio="none" viewBox="0 0 117.8 115.6" class="ng-element" data-id="d702f8b1d4be4a9aa3cbed9a0ab99085" style="opacity: 1; mix-blend-mode: normal; overflow: visible; width: 16px; height: 16px; transform: rotate(0deg) translate(983px, 207px);"><style type="text/css">
	.st0_1563257514912{fill:#333333;}
</style><g>
	<g>
		<path d="M113.6,107.4H4.2c-2.3,0-4.1,1.9-4.1,4.1s1.9,4.1,4.1,4.1h109.5c2.3,0,4.1-1.9,4.1-4.1    S115.9,107.4,113.6,107.4z" class="st0_1563257514912" vector-effect="non-scaling-stroke"></path>
		<path d="M0.1,71.1L0,90.6c0,1.1,0.4,2.2,1.2,3s1.8,1.2,2.9,1.2l19.4-0.1c1.1,0,2.1-0.4,2.9-1.2l67-67    c1.6-1.6,1.6-4.2,0-5.9L74.2,1.2c-1.6-1.6-4.2-1.6-5.9,0L54.9,14.7L1.3,68.2C0.6,69,0.1,70,0.1,71.1z M71.3,10l13.5,13.5l-7.6,7.6    L63.7,17.6C63.7,17.6,71.3,10,71.3,10z M8.4,72.9l49.4-49.4L71.3,37L21.9,86.3L8.3,86.4C8.3,86.4,8.4,72.9,8.4,72.9z" class="st0_1563257514912" vector-effect="non-scaling-stroke"></path>
	</g>
</g></svg>