<svg version="1.2" id="Layer_1" xmlns="http://www.w3.org/2000/svg" xmlns:xlink="http://www.w3.org/1999/xlink" x="0px" y="0px" viewBox="0 0 18 18" 
style="enable-background:new 0 0 455 455;" xml:space="preserve">
<g>
	<g>
		<g>
			<path d="M5.3,15.1c-0.5-0.3-1-0.6-1.4-1c-0.3-0.3-0.6-0.6-0.8-1C3,13,2.8,12.9,2.7,13s-0.2,0.3-0.1,0.5c0,0,0,0,0,0     c0.2,0.4,0.5,0.8,0.9,1.1c0.5,0.5,1,0.8,1.6,1.1c0.2,0.1,0.4,0,0.4-0.2C5.5,15.4,5.4,15.2,5.3,15.1z" class="st0_1563948993840" vector-effect="non-scaling-stroke"></path>
			<path d="M13.9,3.1c-0.1-0.1-0.4-0.1-0.5,0c-0.1,0.1-0.1,0.4,0,0.5c0.4,0.3,0.7,0.6,1,1c0.1,0.1,0.3,0.2,0.5,0     c0.1-0.1,0.2-0.3,0-0.5C14.6,3.8,14.3,3.4,13.9,3.1z" class="st0_1563948993840" vector-effect="non-scaling-stroke"></path>
			<path d="M3.4,6.1C3.2,6.3,3,6.6,2.8,6.9c-1,1.5-1.4,3.4-0.8,5.1c0.1,0.2,0.2,0.3,0.4,0.2c0.2-0.1,0.3-0.2,0.2-0.4     C1.7,9,3.4,6,6.2,5.2c1.9-0.5,3.9,0,5.2,1.4c0.1,0.1,0.2,0.3,0.4,0.4c1.7,2,1.6,5-0.2,7c0,0,0,0,0,0l0,0c0,0,0,0,0,0     c0,0.1-0.1,0.1-0.1,0.2c-1.3,1.3-3.1,1.8-4.8,1.5c-0.2,0-0.4,0.1-0.4,0.3c0,0.2,0.1,0.4,0.3,0.4c2,0.4,4-0.2,5.4-1.6     c0.1-0.1,0.1-0.1,0.1-0.2c0,0,0,0,0,0c2.2-2.4,2.1-6-0.2-8.3C9.6,3.7,5.8,3.7,3.4,6.1z" class="st0_1563948993840" vector-effect="non-scaling-stroke"></path>
			<path d="M11.9,6.1L11.9,6.1L11.9,6.1z" class="st0_1563948993840" vector-effect="non-scaling-stroke"></path>
			<path d="M10.3,0C8,0,5.7,1.1,4.3,3C3.8,3.3,3.3,3.8,3,4.3C-0.4,6.9-1,11.7,1.6,15S9,19,12.4,16.4     c0.5-0.4,0.9-0.8,1.3-1.3c0.5-0.4,0.9-0.8,1.3-1.3c1.9-1.4,3-3.7,3-6C18,3.4,14.6,0,10.3,0z M13.7,13.8c-1.3,2.2-3.6,3.5-6.1,3.5     c-3.9,0-7-3.1-7-7c0-2.2,1-4.2,2.7-5.5c0.2-0.2,0.5-0.4,0.8-0.5c3.3-1.9,7.6-0.8,9.6,2.6C15,9,15,11.7,13.7,13.8z M15.6,5.2     C15.6,5,15.4,4.9,15.2,5C15,5.1,15,5.3,15,5.5c0,0,0,0,0,0c1.3,2.2,1.2,5-0.1,7.1c1.3-4-1-8.3-5-9.6C8.5,2.5,6.9,2.5,5.4,3     C6.5,2.4,7.7,2,9,2c1.2,0,2.5,0.3,3.5,1C12.7,3,12.9,3,13,2.8c0.1-0.2,0-0.3-0.1-0.4C11,1.3,8.7,1,6.7,1.7c3.3-2,7.6-1,9.6,2.3     c0.7,1.1,1,2.4,1,3.6c0,1.3-0.4,2.5-1,3.6C17,9.3,16.7,7,15.6,5.2z" class="st0_1563948993840" vector-effect="non-scaling-stroke"></path>
		</g>
		<path d="M9.3,8.8c0.2,0,0.3-0.1,0.3-0.3S9.5,8.1,9.3,8.1h-3C6.2,8.1,6,8.3,6,8.4s0.1,0.3,0.3,0.3h0.8    C7.6,8.8,8,9,8.1,9.4H6.3C6.2,9.4,6,9.5,6,9.7S6.2,10,6.3,10h1.8c-0.1,0.4-0.5,0.6-0.9,0.6H6.3c-0.1,0-0.2,0.1-0.3,0.2    c0,0.1,0,0.3,0.1,0.3l2.1,2c0.1,0.1,0.1,0.1,0.2,0.1c0.1,0,0.2,0,0.2-0.1c0.1-0.1,0.1-0.3,0-0.4l-1.5-1.5h0.1    c0.8,0,1.4-0.5,1.6-1.3h0.6c0.2,0,0.3-0.1,0.3-0.3S9.5,9.4,9.3,9.4H8.8c0-0.2-0.1-0.5-0.3-0.6H9.3z" class="st0_1563948993840" vector-effect="non-scaling-stroke"></path>
	</g>
</g>
</svg>



