<svg version="1.2" id="Layer_1" xmlns="http://www.w3.org/2000/svg" xmlns:xlink="http://www.w3.org/1999/xlink" x="0px" y="0px" viewBox="0 0 433.5 331.5" 
style="enable-background:new 0 0 455 455;" xml:space="preserve">
<g>
	<g id="group-add_1563433348065">
		<path d="M280.5,153c43.4,0,76.5-33.1,76.5-76.5S323.9,0,280.5,0c-7.6,0-15.3,2.6-23,2.6c15.3,22.9,23,45.9,23,73.9    s-7.6,51-23,74C265.2,150.5,272.9,153,280.5,153z M153,153c43.4,0,76.5-33.1,76.5-76.5S196.4,0,153,0S76.5,33.1,76.5,76.5    S109.6,153,153,153z M321.3,209.1c20.4,17.9,35.7,43.4,35.7,71.4v51h76.5v-51C433.5,242.2,372.3,216.8,321.3,209.1z M153,204    c-51,0-153,25.5-153,76.5v51h306v-51C306,229.5,204,204,153,204z" class="st0_1563433348065" vector-effect="non-scaling-stroke"></path>
	</g>
</g></svg>