<svg version="1.2" id="Layer_1" xmlns="http://www.w3.org/2000/svg" xmlns:xlink="http://www.w3.org/1999/xlink" x="0px" y="0px" viewBox="0 0 18 18" 
style="enable-background:new 0 0 455 455;" xml:space="preserve">
<path d="M9,0C4,0,0,4,0,9s4,9,9,9s9-4,9-9C18,4,14,0,9,0z M9,17.4c-4.6,0-8.4-3.8-8.4-8.4S4.4,0.6,9,0.6  s8.4,3.8,8.4,8.4C17.4,13.6,13.6,17.4,9,17.4z" class="st0_1563949244129" vector-effect="non-scaling-stroke"></path><path d="M9,2.4C6.3,2.4,3.9,4,2.9,6.5c-1,2.5-0.5,5.3,1.4,7.2c0.1,0.1,0.3,0.1,0.4,0l1.8-1.8c0.1-0.1,0.1-0.3,0-0.4  C5.8,10.8,5.4,9.9,5.4,9c0-1.7,1.2-3.1,2.8-3.5c1.6-0.4,3.3,0.4,4,1.9c-1.5,0.2-3.2,0.3-3.4,0.4C8.2,8,7.8,8.7,8,9.3  C8.1,9.6,8.3,9.9,8.5,10c0.3,0.2,0.6,0.2,0.9,0.1c0.3-0.1,1.8-0.8,3.2-1.5c0,0.1,0,0.2,0,0.3c0,0.9-0.4,1.8-1.1,2.5  c-0.1,0.1-0.1,0.3,0,0.4l1.8,1.8c0.1,0.1,0.3,0.1,0.4,0c1.9-1.9,2.4-4.7,1.4-7.2C14.1,4,11.7,2.4,9,2.4z M8.7,4.8  C8.2,4.9,7.6,5,7.2,5.2L6.3,3.7C7,3.3,7.9,3.1,8.7,3V4.8z M9.3,3c0.8,0,1.7,0.3,2.4,0.7l-0.9,1.6c-0.5-0.2-1-0.4-1.5-0.4V3z   M4.8,9.3c0,0.5,0.2,1,0.5,1.5l-1.6,0.9C3.3,11,3,10.2,3,9.3H4.8z M4.8,8.7H3c0-0.8,0.3-1.7,0.7-2.4l1.6,0.9C5,7.6,4.9,8.2,4.8,8.7  L4.8,8.7z M4.5,13.1c-0.2-0.2-0.4-0.5-0.6-0.8l1.7-1c0.1,0.1,0.2,0.3,0.3,0.4L4.5,13.1z M5.5,6.6L4,5.7C4.4,5,5,4.4,5.7,4l0.9,1.6  C6.2,5.8,5.8,6.2,5.5,6.6z M11.4,5.5L12.3,4C13,4.4,13.6,5,14,5.7l-1.6,0.9C12.2,6.2,11.8,5.8,11.4,5.5z M9.2,9.6  c-0.1,0-0.3,0-0.4-0.1C8.7,9.4,8.6,9.3,8.6,9.2C8.5,8.8,8.7,8.5,9,8.4c0.2-0.1,2-0.3,3.8-0.4C11.2,8.7,9.5,9.5,9.2,9.6z M14.7,7.4  c0-0.1-0.2-0.2-0.3-0.2c-0.2,0-0.8,0.1-1.5,0.2c0-0.1-0.1-0.1-0.1-0.2l1.6-0.9C14.7,7,14.9,7.9,15,8.7h-1.8c0-0.1,0-0.2,0-0.3  c0.7-0.3,1.2-0.6,1.4-0.7C14.7,7.7,14.7,7.6,14.7,7.4z M13.2,9.3H15c0,0.9-0.2,1.7-0.6,2.5l-1.6-0.9C13,10.3,13.1,9.8,13.2,9.3z   M13.5,13.1l-1.4-1.4c0.1-0.1,0.2-0.2,0.3-0.4l1.7,1C13.9,12.6,13.7,12.8,13.5,13.1z" class="st0_1563949244129" vector-effect="non-scaling-stroke"></path><path d="M13.2,14.1H4.8c-0.2,0-0.3,0.1-0.3,0.3v1.2c0,0.2,0.1,0.3,0.3,0.3h8.4c0.2,0,0.3-0.1,0.3-0.3v-1.2  C13.5,14.2,13.4,14.1,13.2,14.1z M12.9,15.3H5.1v-0.6h7.8V15.3z" class="st0_1563949244129" vector-effect="non-scaling-stroke"></path><path d="M0.9,8.7h1.2v0.6H0.9V8.7z" class="st0_1563949244129" vector-effect="non-scaling-stroke"></path><path d="M3.1,14.5l0.6-0.6l0.4,0.4l-0.6,0.6L3.1,14.5z" class="st0_1563949244129" vector-effect="non-scaling-stroke"></path><path d="M3.1,3.5l0.4-0.4l0.6,0.6L3.7,4.1L3.1,3.5z" class="st0_1563949244129" vector-effect="non-scaling-stroke"></path><path d="M8.7,0.9h0.6v1.2H8.7V0.9z" class="st0_1563949244129" vector-effect="non-scaling-stroke"></path><path d="M13.9,3.7l0.6-0.6l0.4,0.4l-0.6,0.6L13.9,3.7z" class="st0_1563949244129" vector-effect="non-scaling-stroke"></path><path d="M15.9,8.7h1.2v0.6h-1.2V8.7z" class="st0_1563949244129" vector-effect="non-scaling-stroke"></path><path d="M13.9,14.3l0.4-0.4l0.6,0.6l-0.4,0.4L13.9,14.3z" class="st0_1563949244129" vector-effect="non-scaling-stroke"></path></svg>



