<svg version="1.2" id="Layer_1" xmlns="http://www.w3.org/2000/svg" xmlns:xlink="http://www.w3.org/1999/xlink" x="0px" y="0px" viewBox="0 0 252.6 289" 
style="enable-background:new 0 0 455 455;" xml:space="preserve">
<g>
	<g>
		<path d="M229.8,220.7c13.8-18.2,21.3-37.7,22.2-57.9c0.7-13.5,0.6-27.2,0.6-40.5v-60c0-11.6-7.1-19.5-19-21.1    l-5.1-0.6c-6.8-0.8-13.3-1.6-19.5-3c-22.5-5-44.2-15.2-68.3-32c-3.8-2.6-8-5.6-14.2-5.6s-10.4,3-14.1,5.6    C80.1,27.9,51.1,39.1,21.2,40.9c-7.9,0.4-21,3.7-21,22.3l-0.1,30C0,113.4,0,133.7,0.2,153.9c0,8.1,1,16.6,3.1,26    c4.5,20.2,15.2,38.7,32.7,56.5c21.4,21.7,48.4,38.5,83.1,51.5c2.3,0.8,4.7,1.1,7.2,1.1l0,0c3.4,0,6.8-0.8,9.2-2l8.8-3.8    c7.2-3.1,14.5-6.3,21.9-10C193.3,259,214.2,241.7,229.8,220.7z M152.2,246.2c-6.6,3.3-13.4,6.2-20.1,9.1c-1.9,0.8-3.8,1.6-5.8,2.5    V147.2H30.5c-0.1-18-0.1-36-0.1-53.9l0.1-22.7c31.9-3.3,62.7-15.4,95.8-37.7v114.4H222c-0.1,4.7-0.1,9.5-0.4,14.1    c-0.6,14.2-5.9,27.5-16.2,41.1C192.6,219.9,175.1,234.3,152.2,246.2z" class="st0_1563433175696" vector-effect="non-scaling-stroke"></path>
	</g>
</g></svg>