<svg version="1.2" id="Layer_1" xmlns="http://www.w3.org/2000/svg" xmlns:xlink="http://www.w3.org/1999/xlink" x="0px" y="0px" viewBox="0 0 512 512" 
style="enable-background:new 0 0 455 455;" xml:space="preserve">
 <g>
	<g>
		<path d="M374,108H154.9L305,21.3c4.8-2.8,10.9-1.1,13.7,3.7l33.9,58.7c2.8,4.8,8.9,6.4,13.7,3.7    c4.8-2.8,6.4-8.9,3.7-13.7L336,15c-8.3-14.3-26.7-19.2-41-11L115.1,107.9c-0.1,0-0.1,0.1-0.2,0.1H30c-16.5,0-30,13.5-30,30v344    c0,16.5,13.5,30,30,30h344c16.5,0,30-13.5,30-30V138C404,121.4,390.5,108,374,108z M384,482c0,5.5-4.5,10-10,10H30    c-5.5,0-10-4.5-10-10V138c0-5.5,4.5-10,10-10h344c5.5,0,10,4.5,10,10L384,482L384,482z" class="st0_1563191729914" vector-effect="non-scaling-stroke"></path>
	</g>
</g><g>
	<g>
		<path d="M447.3,208.5c-1.9-1.9-4.4-2.9-7.1-2.9s-5.2,1.1-7.1,2.9c-1.9,1.9-2.9,4.4-2.9,7.1s1.1,5.2,2.9,7.1    c1.9,1.9,4.4,2.9,7.1,2.9c2.6,0,5.2-1.1,7.1-2.9c1.9-1.9,2.9-4.4,2.9-7.1S449.2,210.4,447.3,208.5z" class="st0_1563191729914" vector-effect="non-scaling-stroke"></path>
	</g>
</g><g>
	<g>
		<path d="M508,312.9l-41.4-71.7c-2.8-4.8-8.9-6.4-13.7-3.7c-4.8,2.8-6.4,8.9-3.7,13.7l41.4,71.7    c2.8,4.8,1.1,10.9-3.7,13.7l-64.3,37.1c-4.8,2.8-6.4,8.9-3.7,13.7c1.9,3.2,5.2,5,8.7,5c1.7,0,3.4-0.4,5-1.3l64.3-37.1    C511.3,345.6,516.3,327.2,508,312.9z" class="st0_1563191729914" vector-effect="non-scaling-stroke"></path>
	</g>
</g><g>
	<g>
		<path d="M263.1,158.9c-1.9-1.9-4.4-2.9-7.1-2.9s-5.2,1.1-7.1,2.9c-1.9,1.9-2.9,4.4-2.9,7.1s1.1,5.2,2.9,7.1    s4.4,2.9,7.1,2.9s5.2-1.1,7.1-2.9c1.9-1.9,2.9-4.4,2.9-7.1S264.9,160.8,263.1,158.9z" class="st0_1563191729914" vector-effect="non-scaling-stroke"></path>
	</g>
</g><g>
	<g>
		<path d="M346,156h-39c-5.5,0-10,4.5-10,10s4.5,10,10,10h29v142.6l-79.4-79.4c-1.9-1.9-4.4-2.9-7.1-2.9    s-5.2,1.1-7.1,2.9l-53,53c-3.9,3.9-3.9,10.2,0,14.1c3.9,3.9,10.2,3.9,14.1,0l45.9-45.9l86.4,86.4c0,0,0,0,0.1,0.1V396H82.1    l72.6-72.6l53.9,53.9c3.9,3.9,10.2,3.9,14.1,0c3.9-3.9,3.9-10.2,0-14.1l-61-61c-1.9-1.9-4.4-2.9-7.1-2.9s-5.2,1.1-7.1,2.9    L68,381.9V176h134c5.5,0,10-4.5,10-10s-4.5-10-10-10H58c-5.5,0-10,4.5-10,10v240c0,5.5,4.5,10,10,10h288c5.5,0,10-4.5,10-10V166    C356,160.5,351.5,156,346,156z" class="st0_1563191729914" vector-effect="non-scaling-stroke"></path>
	</g>
</g><g>
	<g>
		<path d="M145.7,199c-17.6,0-32,14.4-32,32s14.4,32,32,32c17.6,0,32-14.4,32-32S163.3,199,145.7,199z M145.7,243    c-6.6,0-12-5.4-12-12s5.4-12,12-12s12,5.4,12,12C157.7,237.6,152.3,243,145.7,243z" class="st0_1563191729914" vector-effect="non-scaling-stroke"></path>
	</g>
</g></svg>



