<svg version="1.2" id="Layer_1" xmlns="http://www.w3.org/2000/svg" xmlns:xlink="http://www.w3.org/1999/xlink" x="0px" y="0px" viewBox="0 0 115.8 115.8" 
style="enable-background:new 0 0 455 455;" xml:space="preserve">
 <g>
	<g>
		<path d="M57.9,115.8c31.9,0,57.9-26,57.9-57.9S89.8,0,57.9,0S0,26,0,57.9S26,115.8,57.9,115.8z M57.9,8.1    c27.4,0,49.8,22.3,49.8,49.8s-22.3,49.8-49.8,49.8S8.1,85.3,8.1,57.9S30.5,8.1,57.9,8.1z" class="st0_1563957240253" vector-effect="non-scaling-stroke"></path>
		<path d="M31.2,61.4h53.3c2.3,0,4.1-1.8,4.1-4.1s-1.8-4.1-4.1-4.1H31.2c-2.3,0-4.1,1.8-4.1,4.1    C27.1,59.6,29,61.4,31.2,61.4z" class="st0_1563957240253" vector-effect="non-scaling-stroke"></path>
	</g>
</g></svg>



